PathFileType	4	(X/Y/Z)	s11c0303.trc
DataRate	CameraRate	NumFrames	NumMarkers	Units	OrigDataRate	OrigDataStartFrame	OrigNumFrames
200	200	4	48	mm	200	250	2000
Frame#	Time	racr			lacr			c7			jug			rlel			rdr			llel			ldr			s2			lic			ric			lasi			rasi			rpsi			lpsi			rgt			lgt			rth1			rth2			rth3			rth4			rlfc			rmfc			rsh1			rsh2			rsh3			rsh4			rlmal			rcal			rtoe			rmt5			lth1			lth2			lth4			lth3			llfc			lmfc			llmal			lcal			lmt5			lsh1			lsh2			lsh3			lsh4			ltoe			SBIKE			LBIKE			RBIKE			
		X1	Y1	Z1	X2	Y2	Z2	X3	Y3	Z3	X4	Y4	Z4	X5	Y5	Z5	X6	Y6	Z6	X7	Y7	Z7	X8	Y8	Z8	X9	Y9	Z9	X10	Y10	Z10	X11	Y11	Z11	X12	Y12	Z12	X13	Y13	Z13	X14	Y14	Z14	X15	Y15	Z15	X16	Y16	Z16	X17	Y17	Z17	X18	Y18	Z18	X19	Y19	Z19	X20	Y20	Z20	X21	Y21	Z21	X22	Y22	Z22	X23	Y23	Z23	X24	Y24	Z24	X25	Y25	Z25	X26	Y26	Z26	X27	Y27	Z27	X28	Y28	Z28	X29	Y29	Z29	X30	Y30	Z30	X31	Y31	Z31	X32	Y32	Z32	X33	Y33	Z33	X34	Y34	Z34	X35	Y35	Z35	X36	Y36	Z36	X37	Y37	Z37	X38	Y38	Z38	X39	Y39	Z39	X40	Y40	Z40	X41	Y41	Z41	X42	Y42	Z42	X43	Y43	Z43	X44	Y44	Z44	X45	Y45	Z45	X46	Y46	Z46	X47	Y47	Z47	X48	Y48	Z48	
250	1.2500	440.543184	1373.954420	-112.509385	418.606909	1378.284571	-417.125144	351.151394	1494.306657	-258.036124	384.685729	1319.372374	-267.837569	582.910544	1146.503225	-60.286815	792.619092	930.837055	-90.651194	541.363947	1122.223524	-490.406533	794.218185	917.998914	-450.871251	-182.039904	1203.218393	-248.636928	22.082261	1239.454019	-456.878425	52.368398	1209.779170	-56.218069	49.761038	1163.200410	-424.767845	82.473570	1144.325610	-90.864983	-165.499518	1293.288255	-152.210203	-144.122862	1282.142741	-282.118231	-15.771738	1063.025353	-35.493386	-57.107622	1109.240017	-469.859781	75.601895	951.680482	-31.748366	152.930294	902.820084	-45.339760	191.600094	825.658722	-62.840304	178.889310	927.533192	-55.001183	255.437937	741.464048	-79.482764	251.659469	724.792968	-206.271072	170.062480	604.781745	-67.926864	142.908806	522.867040	-87.655597	79.686045	462.705597	-89.184156	164.203539	513.936658	-120.217179	-4.092650	358.888098	-103.466383	-72.180630	353.043589	-151.198964	198.554470	260.556047	-146.385883	125.653113	249.029635	-76.482468	77.189663	1038.457217	-489.032230	161.515281	1023.549154	-489.059188	178.687636	1055.675129	-481.399416	229.950176	964.936178	-489.850491	352.728551	893.042404	-468.841967	373.281388	893.647049	-343.580358	253.280620	479.535832	-420.739016	201.716534	431.909090	-380.966928	404.362156	399.997088	-458.205583	322.780712	769.340169	-479.848150	330.531320	686.091471	-461.467852	294.876710	606.024653	-450.195366	362.237204	685.045691	-440.102690	499.665381	433.075930	-393.833945	-217.221861	948.359138	-256.677539	-17.949900	80.781470	-460.778339	-17.982943	80.828438	-61.999553	
251	1.2550	440.692170	1374.026090	-112.473928	418.766354	1378.439470	-417.064062	351.236247	1494.397005	-258.032038	384.942324	1319.318941	-267.797159	583.004292	1146.521139	-60.136473	792.642369	930.803032	-90.642210	541.363092	1122.249768	-490.406629	794.191081	918.004772	-450.903071	-181.950438	1203.265803	-248.561578	22.227641	1239.405881	-456.730999	52.509875	1209.686867	-56.159415	49.943831	1163.216566	-424.788510	82.613320	1144.229629	-90.873868	-165.975563	1293.595114	-151.172244	-143.989089	1282.154731	-282.079657	-15.620714	1062.954276	-35.501905	-57.000836	1109.275827	-469.848458	75.711906	951.611612	-31.801579	153.088455	902.733585	-45.422095	191.728668	825.588437	-62.975577	179.019022	927.480776	-55.092734	255.564222	741.401003	-79.655749	251.579757	724.925993	-206.675066	170.163836	604.745257	-68.050614	142.963063	522.810858	-87.726551	79.729672	462.667294	-89.232476	164.244543	513.907863	-120.324423	-4.070360	358.865325	-103.491690	-72.167919	353.021061	-151.208479	198.556517	260.512263	-146.407303	125.648411	249.008858	-76.488942	77.303591	1038.453742	-488.983697	161.632799	1023.531937	-488.997190	178.798816	1055.657123	-481.352087	230.045078	964.911772	-489.785140	352.836515	893.064844	-468.799761	373.333233	893.625981	-343.519914	253.271805	479.571368	-420.751309	201.711467	431.936141	-380.963675	404.355792	400.018637	-458.212517	322.848047	769.373779	-479.837617	330.577477	686.123383	-461.454657	294.904103	606.054194	-450.179487	362.285419	685.059341	-440.076713	499.655118	433.106326	-393.817934	-217.210349	948.361588	-256.691163	-17.953958	80.786590	-460.791965	-17.987074	80.820940	-62.005010	
252	1.2600	440.835372	1374.092877	-112.501735	418.936588	1378.672070	-417.017748	351.356236	1494.449693	-257.949154	385.181803	1319.270589	-267.768761	583.109925	1146.540943	-59.970700	792.655128	930.782739	-90.649650	541.259758	1122.333408	-490.116199	794.170875	918.005724	-450.877827	-181.808426	1203.274355	-248.527962	22.408266	1239.405551	-456.753250	52.678183	1209.576553	-56.118060	50.085073	1163.176197	-424.683978	82.730122	1144.123678	-90.872114	-166.471649	1293.822174	-150.125308	-143.876596	1282.175520	-282.038336	-15.479420	1062.893197	-35.513280	-56.882080	1109.293963	-469.830448	75.818905	951.544086	-31.854541	153.226528	902.670193	-45.510875	191.884485	825.535243	-63.094840	179.173659	927.424105	-55.211358	255.682093	741.332032	-79.814402	251.662567	724.850766	-206.746450	170.241718	604.701992	-68.143246	143.049090	522.801022	-87.823932	79.792519	462.641286	-89.313434	164.306827	513.878755	-120.386476	-4.023968	358.855638	-103.503048	-72.140960	353.014753	-151.213854	198.597408	260.437038	-146.446745	125.683436	248.974243	-76.506969	77.409292	1038.462159	-488.953591	161.733834	1023.507151	-488.935301	178.913643	1055.640856	-481.297129	230.141844	964.898988	-489.744713	352.968841	893.068853	-468.741670	373.400227	893.618113	-343.502762	253.254037	479.608604	-420.773956	201.677099	431.980126	-380.992925	404.342262	400.052932	-458.190643	322.920575	769.411955	-479.798546	330.638210	686.146252	-461.411981	294.954317	606.080276	-450.158345	362.344055	685.076946	-440.069635	499.633443	433.148550	-393.813436	-217.218192	948.365947	-256.684438	-17.957181	80.791265	-460.778807	-17.994713	80.825859	-62.007414	
253	1.2650	440.998833	1374.169235	-112.516924	419.148464	1378.829688	-416.979693	351.353160	1494.557657	-257.966929	385.398155	1319.254360	-267.735507	583.227894	1146.575544	-59.829964	792.659038	930.732440	-90.667022	541.407765	1122.286030	-490.246625	794.177137	917.991625	-450.846237	-181.693310	1203.288205	-248.481943	22.601394	1239.385204	-456.743203	52.859976	1209.479410	-56.048289	50.232586	1163.191139	-424.671187	82.877747	1144.056232	-90.856872	-166.954502	1294.070929	-149.087070	-143.733923	1282.166643	-281.997945	-15.329256	1062.826958	-35.501509	-56.767330	1109.334108	-469.803041	75.922905	951.477904	-31.907251	153.376239	902.615895	-45.583918	191.995269	825.438269	-63.202860	179.313729	927.350770	-55.314474	255.810796	741.279352	-79.990246	251.706783	724.788249	-206.877621	170.330074	604.670172	-68.243663	143.126450	522.747994	-87.931605	79.831290	462.632226	-89.375783	164.378668	513.845553	-120.512659	-3.995408	358.834757	-103.512703	-72.105284	352.994841	-151.209721	198.638676	260.372667	-146.448981	125.699469	248.944684	-76.507638	77.527775	1038.436042	-488.920250	161.867454	1023.461694	-488.947447	179.017646	1055.613440	-481.252305	230.253689	964.869000	-489.686523	353.091898	893.077245	-468.686110	373.508245	893.622446	-343.439413	253.241006	479.656037	-420.771671	201.652014	432.020055	-380.997684	404.330612	400.093291	-458.194773	322.998007	769.432155	-479.783159	330.691908	686.164844	-461.402470	294.986406	606.110602	-450.144833	362.391789	685.073688	-440.044123	499.613772	433.187212	-393.806290	-217.218213	948.369062	-256.683839	-17.950794	80.789392	-460.785694	-17.997066	80.831151	-61.996432	
